<?xml version="1.0" encoding="UTF-8"?>
<!DOCTYPE svg PUBLIC "-//W3C//DTD SVG 1.1//EN" "http://www.w3.org/Graphics/SVG/1.1/DTD/svg11.dtd">
<svg xmlns="http://www.w3.org/2000/svg" version="1.1" width="468px" height="410px" style="shape-rendering:geometricPrecision; text-rendering:geometricPrecision; image-rendering:optimizeQuality; fill-rule:evenodd; clip-rule:evenodd" xmlns:xlink="http://www.w3.org/1999/xlink">
<g><path style="opacity:0.978" fill="#fefffe" d="M 116.5,-0.5 C 117.167,-0.5 117.833,-0.5 118.5,-0.5C 105.243,26.5141 91.5761,53.3474 77.5,80C 99.4626,134.762 121.296,189.595 143,244.5C 159.906,203.851 176.406,163.018 192.5,122C 192.833,121.833 193.167,121.667 193.5,121.5C 204.604,148.317 215.604,175.151 226.5,202C 199.009,271.142 171.675,340.309 144.5,409.5C 144.167,409.5 143.833,409.5 143.5,409.5C 95.0966,289.282 47.0966,168.949 -0.5,48.5C -0.5,48.1667 -0.5,47.8333 -0.5,47.5C 38.6772,31.7387 77.6772,15.7387 116.5,-0.5 Z"/></g>
<g><path style="opacity:0.978" fill="#fefffe" d="M 264.5,-0.5 C 265.167,-0.5 265.833,-0.5 266.5,-0.5C 333.106,26.9628 400.106,53.6294 467.5,79.5C 467.5,80.5 467.5,81.5 467.5,82.5C 460.4,98.9458 453.566,115.612 447,132.5C 446.477,134.223 445.477,135.556 444,136.5C 416.158,125.887 388.491,114.887 361,103.5C 354.5,119.833 348,136.167 341.5,152.5C 371.785,164.095 402.118,175.595 432.5,187C 402.257,198.081 371.757,208.581 341,218.5C 333.569,215.691 326.236,212.691 319,209.5C 298.667,260.167 278.333,310.833 258,361.5C 248.551,374.428 236.051,378.594 220.5,374C 205.515,366.866 199.348,355.032 202,338.5C 236.167,252 270.333,165.5 304.5,79C 291.02,52.5401 277.687,26.0401 264.5,-0.5 Z"/></g>
</svg>
